# xmcd
# 
# Track frame offsets:
#     150
#     16657
#     30487
#     49110
#     61680
#     75620
#     90695
#     104040
#     120732
#     137457
#     152922
#     165170
# 
# Disc length: 2446
# 
# Revision: 2
# Processed by: cddbd v1.5.2PL0 Copyright (c) Steve Scherf et al.
# Submitted via: BonkEnc v1.0
# 
DISCID=86098c0c
DTITLE=Mark Chesnutt - The Best Of Mark Chesnutt (20th Century Masters The Millennium Collection)
DYEAR=2000
DGENRE=Country
TTITLE0=Too Cold At Home
TTITLE1=Brother Jukebox
TTITLE2=I'll Think Of Something
TTITLE3=Your Love Is A Miracle
TTITLE4=Bubba Shot The Jukebox
TTITLE5=I Just Wanted You To Know
TTITLE6=It Sure Is Monday
TTITLE7=She Dreams
TTITLE8=Gonna Get A Life
TTITLE9=Thank God For Believers
TTITLE10=It's A Little Too Late 
TTITLE11=I Don't Want To Miss A Thing
EXTD=
EXTT0=
EXTT1=
EXTT2=
EXTT3=
EXTT4=
EXTT5=
EXTT6=
EXTT7=
EXTT8=
EXTT9=
EXTT10=
EXTT11=
PLAYORDER=
